%TF.GenerationSoftware,KiCad,Pcbnew,7.0.6-0*%
%TF.CreationDate,2023-10-22T23:09:20-07:00*%
%TF.ProjectId,esp32_daughtercard,65737033-325f-4646-9175-676874657263,1.0*%
%TF.SameCoordinates,Original*%
%TF.FileFunction,Legend,Top*%
%TF.FilePolarity,Positive*%
%FSLAX46Y46*%
G04 Gerber Fmt 4.6, Leading zero omitted, Abs format (unit mm)*
G04 Created by KiCad (PCBNEW 7.0.6-0) date 2023-10-22 23:09:20*
%MOMM*%
%LPD*%
G01*
G04 APERTURE LIST*
%ADD10C,0.150000*%
%ADD11C,0.120000*%
G04 APERTURE END LIST*
D10*
X160020095Y-92164819D02*
X160020095Y-92974342D01*
X160020095Y-92974342D02*
X160067714Y-93069580D01*
X160067714Y-93069580D02*
X160115333Y-93117200D01*
X160115333Y-93117200D02*
X160210571Y-93164819D01*
X160210571Y-93164819D02*
X160401047Y-93164819D01*
X160401047Y-93164819D02*
X160496285Y-93117200D01*
X160496285Y-93117200D02*
X160543904Y-93069580D01*
X160543904Y-93069580D02*
X160591523Y-92974342D01*
X160591523Y-92974342D02*
X160591523Y-92164819D01*
X161020095Y-92260057D02*
X161067714Y-92212438D01*
X161067714Y-92212438D02*
X161162952Y-92164819D01*
X161162952Y-92164819D02*
X161401047Y-92164819D01*
X161401047Y-92164819D02*
X161496285Y-92212438D01*
X161496285Y-92212438D02*
X161543904Y-92260057D01*
X161543904Y-92260057D02*
X161591523Y-92355295D01*
X161591523Y-92355295D02*
X161591523Y-92450533D01*
X161591523Y-92450533D02*
X161543904Y-92593390D01*
X161543904Y-92593390D02*
X160972476Y-93164819D01*
X160972476Y-93164819D02*
X161591523Y-93164819D01*
X160107333Y-103324819D02*
X159774000Y-102848628D01*
X159535905Y-103324819D02*
X159535905Y-102324819D01*
X159535905Y-102324819D02*
X159916857Y-102324819D01*
X159916857Y-102324819D02*
X160012095Y-102372438D01*
X160012095Y-102372438D02*
X160059714Y-102420057D01*
X160059714Y-102420057D02*
X160107333Y-102515295D01*
X160107333Y-102515295D02*
X160107333Y-102658152D01*
X160107333Y-102658152D02*
X160059714Y-102753390D01*
X160059714Y-102753390D02*
X160012095Y-102801009D01*
X160012095Y-102801009D02*
X159916857Y-102848628D01*
X159916857Y-102848628D02*
X159535905Y-102848628D01*
X161059714Y-103324819D02*
X160488286Y-103324819D01*
X160774000Y-103324819D02*
X160774000Y-102324819D01*
X160774000Y-102324819D02*
X160678762Y-102467676D01*
X160678762Y-102467676D02*
X160583524Y-102562914D01*
X160583524Y-102562914D02*
X160488286Y-102610533D01*
X174758819Y-86947333D02*
X175473104Y-86947333D01*
X175473104Y-86947333D02*
X175615961Y-86994952D01*
X175615961Y-86994952D02*
X175711200Y-87090190D01*
X175711200Y-87090190D02*
X175758819Y-87233047D01*
X175758819Y-87233047D02*
X175758819Y-87328285D01*
X175758819Y-85947333D02*
X175758819Y-86518761D01*
X175758819Y-86233047D02*
X174758819Y-86233047D01*
X174758819Y-86233047D02*
X174901676Y-86328285D01*
X174901676Y-86328285D02*
X174996914Y-86423523D01*
X174996914Y-86423523D02*
X175044533Y-86518761D01*
X174758819Y-107267333D02*
X175473104Y-107267333D01*
X175473104Y-107267333D02*
X175615961Y-107314952D01*
X175615961Y-107314952D02*
X175711200Y-107410190D01*
X175711200Y-107410190D02*
X175758819Y-107553047D01*
X175758819Y-107553047D02*
X175758819Y-107648285D01*
X174854057Y-106838761D02*
X174806438Y-106791142D01*
X174806438Y-106791142D02*
X174758819Y-106695904D01*
X174758819Y-106695904D02*
X174758819Y-106457809D01*
X174758819Y-106457809D02*
X174806438Y-106362571D01*
X174806438Y-106362571D02*
X174854057Y-106314952D01*
X174854057Y-106314952D02*
X174949295Y-106267333D01*
X174949295Y-106267333D02*
X175044533Y-106267333D01*
X175044533Y-106267333D02*
X175187390Y-106314952D01*
X175187390Y-106314952D02*
X175758819Y-106886380D01*
X175758819Y-106886380D02*
X175758819Y-106267333D01*
X162647333Y-103324819D02*
X162314000Y-102848628D01*
X162075905Y-103324819D02*
X162075905Y-102324819D01*
X162075905Y-102324819D02*
X162456857Y-102324819D01*
X162456857Y-102324819D02*
X162552095Y-102372438D01*
X162552095Y-102372438D02*
X162599714Y-102420057D01*
X162599714Y-102420057D02*
X162647333Y-102515295D01*
X162647333Y-102515295D02*
X162647333Y-102658152D01*
X162647333Y-102658152D02*
X162599714Y-102753390D01*
X162599714Y-102753390D02*
X162552095Y-102801009D01*
X162552095Y-102801009D02*
X162456857Y-102848628D01*
X162456857Y-102848628D02*
X162075905Y-102848628D01*
X163028286Y-102420057D02*
X163075905Y-102372438D01*
X163075905Y-102372438D02*
X163171143Y-102324819D01*
X163171143Y-102324819D02*
X163409238Y-102324819D01*
X163409238Y-102324819D02*
X163504476Y-102372438D01*
X163504476Y-102372438D02*
X163552095Y-102420057D01*
X163552095Y-102420057D02*
X163599714Y-102515295D01*
X163599714Y-102515295D02*
X163599714Y-102610533D01*
X163599714Y-102610533D02*
X163552095Y-102753390D01*
X163552095Y-102753390D02*
X162980667Y-103324819D01*
X162980667Y-103324819D02*
X163599714Y-103324819D01*
X154281333Y-96461580D02*
X154233714Y-96509200D01*
X154233714Y-96509200D02*
X154090857Y-96556819D01*
X154090857Y-96556819D02*
X153995619Y-96556819D01*
X153995619Y-96556819D02*
X153852762Y-96509200D01*
X153852762Y-96509200D02*
X153757524Y-96413961D01*
X153757524Y-96413961D02*
X153709905Y-96318723D01*
X153709905Y-96318723D02*
X153662286Y-96128247D01*
X153662286Y-96128247D02*
X153662286Y-95985390D01*
X153662286Y-95985390D02*
X153709905Y-95794914D01*
X153709905Y-95794914D02*
X153757524Y-95699676D01*
X153757524Y-95699676D02*
X153852762Y-95604438D01*
X153852762Y-95604438D02*
X153995619Y-95556819D01*
X153995619Y-95556819D02*
X154090857Y-95556819D01*
X154090857Y-95556819D02*
X154233714Y-95604438D01*
X154233714Y-95604438D02*
X154281333Y-95652057D01*
X154662286Y-95652057D02*
X154709905Y-95604438D01*
X154709905Y-95604438D02*
X154805143Y-95556819D01*
X154805143Y-95556819D02*
X155043238Y-95556819D01*
X155043238Y-95556819D02*
X155138476Y-95604438D01*
X155138476Y-95604438D02*
X155186095Y-95652057D01*
X155186095Y-95652057D02*
X155233714Y-95747295D01*
X155233714Y-95747295D02*
X155233714Y-95842533D01*
X155233714Y-95842533D02*
X155186095Y-95985390D01*
X155186095Y-95985390D02*
X154614667Y-96556819D01*
X154614667Y-96556819D02*
X155233714Y-96556819D01*
X154281333Y-94429580D02*
X154233714Y-94477200D01*
X154233714Y-94477200D02*
X154090857Y-94524819D01*
X154090857Y-94524819D02*
X153995619Y-94524819D01*
X153995619Y-94524819D02*
X153852762Y-94477200D01*
X153852762Y-94477200D02*
X153757524Y-94381961D01*
X153757524Y-94381961D02*
X153709905Y-94286723D01*
X153709905Y-94286723D02*
X153662286Y-94096247D01*
X153662286Y-94096247D02*
X153662286Y-93953390D01*
X153662286Y-93953390D02*
X153709905Y-93762914D01*
X153709905Y-93762914D02*
X153757524Y-93667676D01*
X153757524Y-93667676D02*
X153852762Y-93572438D01*
X153852762Y-93572438D02*
X153995619Y-93524819D01*
X153995619Y-93524819D02*
X154090857Y-93524819D01*
X154090857Y-93524819D02*
X154233714Y-93572438D01*
X154233714Y-93572438D02*
X154281333Y-93620057D01*
X154614667Y-93524819D02*
X155233714Y-93524819D01*
X155233714Y-93524819D02*
X154900381Y-93905771D01*
X154900381Y-93905771D02*
X155043238Y-93905771D01*
X155043238Y-93905771D02*
X155138476Y-93953390D01*
X155138476Y-93953390D02*
X155186095Y-94001009D01*
X155186095Y-94001009D02*
X155233714Y-94096247D01*
X155233714Y-94096247D02*
X155233714Y-94334342D01*
X155233714Y-94334342D02*
X155186095Y-94429580D01*
X155186095Y-94429580D02*
X155138476Y-94477200D01*
X155138476Y-94477200D02*
X155043238Y-94524819D01*
X155043238Y-94524819D02*
X154757524Y-94524819D01*
X154757524Y-94524819D02*
X154662286Y-94477200D01*
X154662286Y-94477200D02*
X154614667Y-94429580D01*
X154281333Y-98493580D02*
X154233714Y-98541200D01*
X154233714Y-98541200D02*
X154090857Y-98588819D01*
X154090857Y-98588819D02*
X153995619Y-98588819D01*
X153995619Y-98588819D02*
X153852762Y-98541200D01*
X153852762Y-98541200D02*
X153757524Y-98445961D01*
X153757524Y-98445961D02*
X153709905Y-98350723D01*
X153709905Y-98350723D02*
X153662286Y-98160247D01*
X153662286Y-98160247D02*
X153662286Y-98017390D01*
X153662286Y-98017390D02*
X153709905Y-97826914D01*
X153709905Y-97826914D02*
X153757524Y-97731676D01*
X153757524Y-97731676D02*
X153852762Y-97636438D01*
X153852762Y-97636438D02*
X153995619Y-97588819D01*
X153995619Y-97588819D02*
X154090857Y-97588819D01*
X154090857Y-97588819D02*
X154233714Y-97636438D01*
X154233714Y-97636438D02*
X154281333Y-97684057D01*
X155233714Y-98588819D02*
X154662286Y-98588819D01*
X154948000Y-98588819D02*
X154948000Y-97588819D01*
X154948000Y-97588819D02*
X154852762Y-97731676D01*
X154852762Y-97731676D02*
X154757524Y-97826914D01*
X154757524Y-97826914D02*
X154662286Y-97874533D01*
D11*
%TO.C,U2*%
X163154000Y-96905000D02*
X162979000Y-96905000D01*
X159934000Y-96230000D02*
X159934000Y-96905000D01*
X163154000Y-96230000D02*
X163154000Y-96905000D01*
X159934000Y-94360000D02*
X159934000Y-93685000D01*
X163154000Y-94360000D02*
X163154000Y-93685000D01*
X159934000Y-93685000D02*
X160109000Y-93685000D01*
X163154000Y-93685000D02*
X162979000Y-93685000D01*
%TO.C,R1*%
X159539000Y-100557064D02*
X159539000Y-100102936D01*
X161009000Y-100557064D02*
X161009000Y-100102936D01*
%TO.C,J1*%
X174304000Y-85284000D02*
X174304000Y-86614000D01*
X172974000Y-85284000D02*
X174304000Y-85284000D01*
X171704000Y-85284000D02*
X143704000Y-85284000D01*
X171704000Y-85284000D02*
X171704000Y-87944000D01*
X143704000Y-85284000D02*
X143704000Y-87944000D01*
X171704000Y-87944000D02*
X143704000Y-87944000D01*
%TO.C,J2*%
X174304000Y-105604000D02*
X174304000Y-106934000D01*
X172974000Y-105604000D02*
X174304000Y-105604000D01*
X171704000Y-105604000D02*
X133544000Y-105604000D01*
X171704000Y-105604000D02*
X171704000Y-108264000D01*
X133544000Y-105604000D02*
X133544000Y-108264000D01*
X171704000Y-108264000D02*
X133544000Y-108264000D01*
%TO.C,R2*%
X161825000Y-100557064D02*
X161825000Y-100102936D01*
X163295000Y-100557064D02*
X163295000Y-100102936D01*
%TO.C,C2*%
X157437252Y-96837000D02*
X156914748Y-96837000D01*
X157437252Y-95367000D02*
X156914748Y-95367000D01*
%TO.C,C3*%
X157503252Y-94805000D02*
X156980748Y-94805000D01*
X157503252Y-93335000D02*
X156980748Y-93335000D01*
%TO.C,C1*%
X157437252Y-98869000D02*
X156914748Y-98869000D01*
X157437252Y-97399000D02*
X156914748Y-97399000D01*
%TD*%
M02*
