%TF.GenerationSoftware,KiCad,Pcbnew,7.0.6-0*%
%TF.CreationDate,2023-10-22T23:09:20-07:00*%
%TF.ProjectId,esp32_daughtercard,65737033-325f-4646-9175-676874657263,1.0*%
%TF.SameCoordinates,Original*%
%TF.FileFunction,Copper,L1,Top*%
%TF.FilePolarity,Positive*%
%FSLAX46Y46*%
G04 Gerber Fmt 4.6, Leading zero omitted, Abs format (unit mm)*
G04 Created by KiCad (PCBNEW 7.0.6-0) date 2023-10-22 23:09:20*
%MOMM*%
%LPD*%
G01*
G04 APERTURE LIST*
G04 Aperture macros list*
%AMRoundRect*
0 Rectangle with rounded corners*
0 $1 Rounding radius*
0 $2 $3 $4 $5 $6 $7 $8 $9 X,Y pos of 4 corners*
0 Add a 4 corners polygon primitive as box body*
4,1,4,$2,$3,$4,$5,$6,$7,$8,$9,$2,$3,0*
0 Add four circle primitives for the rounded corners*
1,1,$1+$1,$2,$3*
1,1,$1+$1,$4,$5*
1,1,$1+$1,$6,$7*
1,1,$1+$1,$8,$9*
0 Add four rect primitives between the rounded corners*
20,1,$1+$1,$2,$3,$4,$5,0*
20,1,$1+$1,$4,$5,$6,$7,0*
20,1,$1+$1,$6,$7,$8,$9,0*
20,1,$1+$1,$8,$9,$2,$3,0*%
G04 Aperture macros list end*
%TA.AperFunction,SMDPad,CuDef*%
%ADD10RoundRect,0.087500X0.087500X-0.187500X0.087500X0.187500X-0.087500X0.187500X-0.087500X-0.187500X0*%
%TD*%
%TA.AperFunction,SMDPad,CuDef*%
%ADD11RoundRect,0.087500X0.187500X-0.087500X0.187500X0.087500X-0.187500X0.087500X-0.187500X-0.087500X0*%
%TD*%
%TA.AperFunction,SMDPad,CuDef*%
%ADD12RoundRect,0.250000X0.450000X-0.262500X0.450000X0.262500X-0.450000X0.262500X-0.450000X-0.262500X0*%
%TD*%
%TA.AperFunction,ComponentPad*%
%ADD13R,1.700000X1.700000*%
%TD*%
%TA.AperFunction,ComponentPad*%
%ADD14O,1.700000X1.700000*%
%TD*%
%TA.AperFunction,SMDPad,CuDef*%
%ADD15RoundRect,0.250000X0.250000X0.475000X-0.250000X0.475000X-0.250000X-0.475000X0.250000X-0.475000X0*%
%TD*%
%TA.AperFunction,ViaPad*%
%ADD16C,0.800000*%
%TD*%
%TA.AperFunction,Conductor*%
%ADD17C,0.250000*%
%TD*%
%TA.AperFunction,Conductor*%
%ADD18C,0.500000*%
%TD*%
G04 APERTURE END LIST*
D10*
%TO.P,U2,1,VDDIO*%
%TO.N,+3.3V*%
X160544000Y-96520000D03*
%TO.P,U2,2,SCL/SPC*%
%TO.N,SCL*%
X161044000Y-96520000D03*
%TO.P,U2,3,SDA/SDI*%
%TO.N,SDA*%
X161544000Y-96520000D03*
%TO.P,U2,4,SAO/SD0*%
%TO.N,+3.3V*%
X162044000Y-96520000D03*
%TO.P,U2,5,~{CS}*%
X162544000Y-96520000D03*
D11*
%TO.P,U2,6,INT*%
%TO.N,GPIO14*%
X162769000Y-95795000D03*
%TO.P,U2,7,RESV*%
%TO.N,unconnected-(U2-RESV-Pad7)*%
X162769000Y-95295000D03*
%TO.P,U2,8,FSYNC*%
%TO.N,GPIO32*%
X162769000Y-94795000D03*
D10*
%TO.P,U2,9,GND*%
%TO.N,GND*%
X162544000Y-94070000D03*
%TO.P,U2,10,GND*%
X162044000Y-94070000D03*
%TO.P,U2,11,GND*%
X161544000Y-94070000D03*
%TO.P,U2,12,GND*%
X161044000Y-94070000D03*
%TO.P,U2,13,GND*%
X160544000Y-94070000D03*
D11*
%TO.P,U2,14,REGOUT*%
%TO.N,Net-(U2-REGOUT)*%
X160319000Y-94795000D03*
%TO.P,U2,15,GND*%
%TO.N,GND*%
X160319000Y-95295000D03*
%TO.P,U2,16,VDD*%
%TO.N,+3.3V*%
X160319000Y-95795000D03*
%TD*%
D12*
%TO.P,R1,1*%
%TO.N,+3.3V*%
X160274000Y-101242500D03*
%TO.P,R1,2*%
%TO.N,SCL*%
X160274000Y-99417500D03*
%TD*%
D13*
%TO.P,J1,1,Pin_1*%
%TO.N,SDA*%
X172974000Y-86614000D03*
D14*
%TO.P,J1,2,Pin_2*%
%TO.N,SCL*%
X170434000Y-86614000D03*
%TO.P,J1,3,Pin_3*%
%TO.N,GPIO14*%
X167894000Y-86614000D03*
%TO.P,J1,4,Pin_4*%
%TO.N,GPIO32*%
X165354000Y-86614000D03*
%TO.P,J1,5,Pin_5*%
%TO.N,GPIO15*%
X162814000Y-86614000D03*
%TO.P,J1,6,Pin_6*%
%TO.N,GPIO33*%
X160274000Y-86614000D03*
%TO.P,J1,7,Pin_7*%
%TO.N,GPIO27*%
X157734000Y-86614000D03*
%TO.P,J1,8,Pin_8*%
%TO.N,GPIO12*%
X155194000Y-86614000D03*
%TO.P,J1,9,Pin_9*%
%TO.N,LED*%
X152654000Y-86614000D03*
%TO.P,J1,10,Pin_10*%
%TO.N,VUSB*%
X150114000Y-86614000D03*
%TO.P,J1,11,Pin_11*%
%TO.N,EN*%
X147574000Y-86614000D03*
%TO.P,J1,12,Pin_12*%
%TO.N,VBAT*%
X145034000Y-86614000D03*
%TD*%
D13*
%TO.P,J2,1,Pin_1*%
%TO.N,GPIO04*%
X172974000Y-106934000D03*
D14*
%TO.P,J2,2,Pin_2*%
%TO.N,TX*%
X170434000Y-106934000D03*
%TO.P,J2,3,Pin_3*%
%TO.N,RX*%
X167894000Y-106934000D03*
%TO.P,J2,4,Pin_4*%
%TO.N,POCI*%
X165354000Y-106934000D03*
%TO.P,J2,5,Pin_5*%
%TO.N,PICO*%
X162814000Y-106934000D03*
%TO.P,J2,6,Pin_6*%
%TO.N,SCK*%
X160274000Y-106934000D03*
%TO.P,J2,7,Pin_7*%
%TO.N,A5*%
X157734000Y-106934000D03*
%TO.P,J2,8,Pin_8*%
%TO.N,A4*%
X155194000Y-106934000D03*
%TO.P,J2,9,Pin_9*%
%TO.N,A3*%
X152654000Y-106934000D03*
%TO.P,J2,10,Pin_10*%
%TO.N,A2*%
X150114000Y-106934000D03*
%TO.P,J2,11,Pin_11*%
%TO.N,A1*%
X147574000Y-106934000D03*
%TO.P,J2,12,Pin_12*%
%TO.N,A0*%
X145034000Y-106934000D03*
%TO.P,J2,13,Pin_13*%
%TO.N,GND*%
X142494000Y-106934000D03*
%TO.P,J2,14,Pin_14*%
%TO.N,unconnected-(J2-Pin_14-Pad14)*%
X139954000Y-106934000D03*
%TO.P,J2,15,Pin_15*%
%TO.N,+3.3V*%
X137414000Y-106934000D03*
%TO.P,J2,16,Pin_16*%
%TO.N,RESET*%
X134874000Y-106934000D03*
%TD*%
D12*
%TO.P,R2,1*%
%TO.N,+3.3V*%
X162560000Y-101242500D03*
%TO.P,R2,2*%
%TO.N,SDA*%
X162560000Y-99417500D03*
%TD*%
D15*
%TO.P,C2,1*%
%TO.N,+3.3V*%
X158126000Y-96102000D03*
%TO.P,C2,2*%
%TO.N,GND*%
X156226000Y-96102000D03*
%TD*%
%TO.P,C3,1*%
%TO.N,Net-(U2-REGOUT)*%
X158192000Y-94070000D03*
%TO.P,C3,2*%
%TO.N,GND*%
X156292000Y-94070000D03*
%TD*%
%TO.P,C1,1*%
%TO.N,+3.3V*%
X158126000Y-98134000D03*
%TO.P,C1,2*%
%TO.N,GND*%
X156226000Y-98134000D03*
%TD*%
D16*
%TO.N,GND*%
X163068000Y-92202000D03*
X156210000Y-92202000D03*
X156210000Y-99822000D03*
%TO.N,SCL*%
X160274000Y-98298000D03*
%TO.N,SDA*%
X162560000Y-98298000D03*
%TD*%
D17*
%TO.N,+3.3V*%
X162814000Y-96520000D02*
X163068000Y-96520000D01*
X162544000Y-96520000D02*
X162814000Y-96520000D01*
X162814000Y-96520000D02*
X162044000Y-96520000D01*
D18*
X158126000Y-98134000D02*
X158126000Y-101242500D01*
X158496000Y-101242500D02*
X162560000Y-101242500D01*
X164592000Y-96520000D02*
X164592000Y-101242500D01*
X164592000Y-96520000D02*
X163068000Y-96520000D01*
X158126000Y-101242500D02*
X158496000Y-101242500D01*
D17*
X160544000Y-96020000D02*
X160319000Y-95795000D01*
D18*
X137414000Y-101242500D02*
X137414000Y-106934000D01*
X164592000Y-101242500D02*
X162560000Y-101242500D01*
D17*
X160319000Y-95795000D02*
X158433000Y-95795000D01*
X160544000Y-96520000D02*
X160544000Y-96020000D01*
D18*
X158126000Y-98134000D02*
X158126000Y-96102000D01*
X158496000Y-101242500D02*
X137414000Y-101242500D01*
D17*
X158433000Y-95795000D02*
X158126000Y-96102000D01*
%TO.N,GND*%
X160319000Y-95295000D02*
X161290000Y-95295000D01*
%TO.N,Net-(U2-REGOUT)*%
X159819000Y-94795000D02*
X159094000Y-94070000D01*
X159094000Y-94070000D02*
X158192000Y-94070000D01*
X160319000Y-94795000D02*
X159819000Y-94795000D01*
%TO.N,SCL*%
X160274000Y-98298000D02*
X160274000Y-99417500D01*
X160274000Y-98298000D02*
X161044000Y-97528000D01*
X161044000Y-97528000D02*
X161044000Y-96520000D01*
%TO.N,SDA*%
X162560000Y-98298000D02*
X162560000Y-99388000D01*
X161544000Y-97282000D02*
X161544000Y-96520000D01*
X162560000Y-98298000D02*
X161544000Y-97282000D01*
%TO.N,GPIO14*%
X164555000Y-95795000D02*
X167894000Y-92456000D01*
X162769000Y-95795000D02*
X164555000Y-95795000D01*
X167894000Y-92456000D02*
X167894000Y-86614000D01*
%TO.N,GPIO32*%
X163777000Y-94795000D02*
X165354000Y-93218000D01*
X162769000Y-94795000D02*
X163777000Y-94795000D01*
X165354000Y-93218000D02*
X165354000Y-86614000D01*
%TD*%
%TA.AperFunction,Conductor*%
%TO.N,GND*%
G36*
X143771612Y-85871685D02*
G01*
X143817367Y-85924489D01*
X143827311Y-85993647D01*
X143816955Y-86028405D01*
X143760098Y-86150335D01*
X143760094Y-86150344D01*
X143698938Y-86378586D01*
X143698936Y-86378596D01*
X143678341Y-86613999D01*
X143678341Y-86614000D01*
X143698936Y-86849403D01*
X143698938Y-86849413D01*
X143760094Y-87077655D01*
X143760096Y-87077659D01*
X143760097Y-87077663D01*
X143764000Y-87086032D01*
X143859965Y-87291830D01*
X143859967Y-87291834D01*
X143968281Y-87446521D01*
X143995505Y-87485401D01*
X144162599Y-87652495D01*
X144259384Y-87720265D01*
X144356165Y-87788032D01*
X144356167Y-87788033D01*
X144356170Y-87788035D01*
X144570337Y-87887903D01*
X144570343Y-87887904D01*
X144570344Y-87887905D01*
X144625285Y-87902626D01*
X144798592Y-87949063D01*
X144975034Y-87964500D01*
X145033999Y-87969659D01*
X145034000Y-87969659D01*
X145034001Y-87969659D01*
X145092966Y-87964500D01*
X145269408Y-87949063D01*
X145497663Y-87887903D01*
X145711830Y-87788035D01*
X145905401Y-87652495D01*
X146072495Y-87485401D01*
X146202424Y-87299842D01*
X146257002Y-87256217D01*
X146326500Y-87249023D01*
X146388855Y-87280546D01*
X146405575Y-87299842D01*
X146535500Y-87485395D01*
X146535505Y-87485401D01*
X146702599Y-87652495D01*
X146799384Y-87720265D01*
X146896165Y-87788032D01*
X146896167Y-87788033D01*
X146896170Y-87788035D01*
X147110337Y-87887903D01*
X147110343Y-87887904D01*
X147110344Y-87887905D01*
X147165285Y-87902626D01*
X147338592Y-87949063D01*
X147515034Y-87964500D01*
X147573999Y-87969659D01*
X147574000Y-87969659D01*
X147574001Y-87969659D01*
X147632966Y-87964500D01*
X147809408Y-87949063D01*
X148037663Y-87887903D01*
X148251830Y-87788035D01*
X148445401Y-87652495D01*
X148612495Y-87485401D01*
X148742424Y-87299842D01*
X148797002Y-87256217D01*
X148866500Y-87249023D01*
X148928855Y-87280546D01*
X148945575Y-87299842D01*
X149075500Y-87485395D01*
X149075505Y-87485401D01*
X149242599Y-87652495D01*
X149339384Y-87720265D01*
X149436165Y-87788032D01*
X149436167Y-87788033D01*
X149436170Y-87788035D01*
X149650337Y-87887903D01*
X149650343Y-87887904D01*
X149650344Y-87887905D01*
X149705285Y-87902626D01*
X149878592Y-87949063D01*
X150055034Y-87964500D01*
X150113999Y-87969659D01*
X150114000Y-87969659D01*
X150114001Y-87969659D01*
X150172966Y-87964500D01*
X150349408Y-87949063D01*
X150577663Y-87887903D01*
X150791830Y-87788035D01*
X150985401Y-87652495D01*
X151152495Y-87485401D01*
X151282424Y-87299842D01*
X151337002Y-87256217D01*
X151406500Y-87249023D01*
X151468855Y-87280546D01*
X151485575Y-87299842D01*
X151615500Y-87485395D01*
X151615505Y-87485401D01*
X151782599Y-87652495D01*
X151879384Y-87720265D01*
X151976165Y-87788032D01*
X151976167Y-87788033D01*
X151976170Y-87788035D01*
X152190337Y-87887903D01*
X152190343Y-87887904D01*
X152190344Y-87887905D01*
X152245285Y-87902626D01*
X152418592Y-87949063D01*
X152595034Y-87964500D01*
X152653999Y-87969659D01*
X152654000Y-87969659D01*
X152654001Y-87969659D01*
X152712966Y-87964500D01*
X152889408Y-87949063D01*
X153117663Y-87887903D01*
X153331830Y-87788035D01*
X153525401Y-87652495D01*
X153692495Y-87485401D01*
X153822424Y-87299842D01*
X153877002Y-87256217D01*
X153946500Y-87249023D01*
X154008855Y-87280546D01*
X154025575Y-87299842D01*
X154155500Y-87485395D01*
X154155505Y-87485401D01*
X154322599Y-87652495D01*
X154419384Y-87720265D01*
X154516165Y-87788032D01*
X154516167Y-87788033D01*
X154516170Y-87788035D01*
X154730337Y-87887903D01*
X154730343Y-87887904D01*
X154730344Y-87887905D01*
X154785285Y-87902626D01*
X154958592Y-87949063D01*
X155135034Y-87964500D01*
X155193999Y-87969659D01*
X155194000Y-87969659D01*
X155194001Y-87969659D01*
X155252966Y-87964500D01*
X155429408Y-87949063D01*
X155657663Y-87887903D01*
X155871830Y-87788035D01*
X156065401Y-87652495D01*
X156232495Y-87485401D01*
X156362424Y-87299842D01*
X156417002Y-87256217D01*
X156486500Y-87249023D01*
X156548855Y-87280546D01*
X156565575Y-87299842D01*
X156695500Y-87485395D01*
X156695505Y-87485401D01*
X156862599Y-87652495D01*
X156959384Y-87720264D01*
X157056165Y-87788032D01*
X157056167Y-87788033D01*
X157056170Y-87788035D01*
X157270337Y-87887903D01*
X157270343Y-87887904D01*
X157270344Y-87887905D01*
X157325285Y-87902626D01*
X157498592Y-87949063D01*
X157675034Y-87964500D01*
X157733999Y-87969659D01*
X157734000Y-87969659D01*
X157734001Y-87969659D01*
X157792966Y-87964500D01*
X157969408Y-87949063D01*
X158197663Y-87887903D01*
X158411830Y-87788035D01*
X158605401Y-87652495D01*
X158772495Y-87485401D01*
X158902424Y-87299842D01*
X158957002Y-87256217D01*
X159026500Y-87249023D01*
X159088855Y-87280546D01*
X159105575Y-87299842D01*
X159235500Y-87485395D01*
X159235505Y-87485401D01*
X159402599Y-87652495D01*
X159499384Y-87720264D01*
X159596165Y-87788032D01*
X159596167Y-87788033D01*
X159596170Y-87788035D01*
X159810337Y-87887903D01*
X159810343Y-87887904D01*
X159810344Y-87887905D01*
X159865285Y-87902626D01*
X160038592Y-87949063D01*
X160215034Y-87964500D01*
X160273999Y-87969659D01*
X160274000Y-87969659D01*
X160274001Y-87969659D01*
X160332966Y-87964500D01*
X160509408Y-87949063D01*
X160737663Y-87887903D01*
X160951830Y-87788035D01*
X161145401Y-87652495D01*
X161312495Y-87485401D01*
X161442424Y-87299842D01*
X161497002Y-87256217D01*
X161566500Y-87249023D01*
X161628855Y-87280546D01*
X161645575Y-87299842D01*
X161775500Y-87485395D01*
X161775505Y-87485401D01*
X161942599Y-87652495D01*
X162039384Y-87720264D01*
X162136165Y-87788032D01*
X162136167Y-87788033D01*
X162136170Y-87788035D01*
X162350337Y-87887903D01*
X162350343Y-87887904D01*
X162350344Y-87887905D01*
X162405285Y-87902626D01*
X162578592Y-87949063D01*
X162755034Y-87964500D01*
X162813999Y-87969659D01*
X162814000Y-87969659D01*
X162814001Y-87969659D01*
X162872966Y-87964500D01*
X163049408Y-87949063D01*
X163277663Y-87887903D01*
X163491830Y-87788035D01*
X163685401Y-87652495D01*
X163852495Y-87485401D01*
X163982424Y-87299842D01*
X164037002Y-87256217D01*
X164106500Y-87249023D01*
X164168855Y-87280546D01*
X164185575Y-87299842D01*
X164315500Y-87485395D01*
X164315505Y-87485401D01*
X164482599Y-87652495D01*
X164675624Y-87787653D01*
X164719248Y-87842228D01*
X164728500Y-87889226D01*
X164728500Y-92907546D01*
X164708815Y-92974585D01*
X164692181Y-92995227D01*
X163554228Y-94133181D01*
X163492905Y-94166666D01*
X163466547Y-94169500D01*
X163218836Y-94169500D01*
X163171384Y-94160061D01*
X163107406Y-94133561D01*
X163053002Y-94089721D01*
X163030937Y-94023427D01*
X163048216Y-93955727D01*
X163099353Y-93908116D01*
X163154858Y-93895000D01*
X163218999Y-93895000D01*
X163218999Y-93843986D01*
X163203881Y-93729140D01*
X163203877Y-93729128D01*
X163144683Y-93586219D01*
X163144680Y-93586213D01*
X163050510Y-93463490D01*
X163050509Y-93463489D01*
X162927786Y-93369319D01*
X162927780Y-93369316D01*
X162784868Y-93310121D01*
X162719000Y-93301448D01*
X162719000Y-93895000D01*
X162731819Y-93907819D01*
X162765304Y-93969142D01*
X162760320Y-94038834D01*
X162718448Y-94094767D01*
X162652984Y-94119184D01*
X162644138Y-94119500D01*
X162542960Y-94119500D01*
X162542954Y-94119500D01*
X162542949Y-94119501D01*
X162446254Y-94132231D01*
X162434895Y-94130459D01*
X162430594Y-94133561D01*
X162284962Y-94193882D01*
X162251739Y-94219376D01*
X162186569Y-94244570D01*
X162176253Y-94245000D01*
X161719000Y-94245000D01*
X161719000Y-94838548D01*
X161777819Y-94830806D01*
X161810187Y-94830807D01*
X161890310Y-94841356D01*
X161954207Y-94869623D01*
X161992677Y-94927948D01*
X161997063Y-94948108D01*
X162007689Y-95028813D01*
X162007689Y-95061186D01*
X161993500Y-95168952D01*
X161993500Y-95421047D01*
X162007689Y-95528814D01*
X162007689Y-95561186D01*
X161997131Y-95641378D01*
X161968864Y-95705274D01*
X161910539Y-95743745D01*
X161890378Y-95748131D01*
X161810186Y-95758689D01*
X161777814Y-95758689D01*
X161670047Y-95744500D01*
X161670040Y-95744500D01*
X161417960Y-95744500D01*
X161417952Y-95744500D01*
X161310186Y-95758689D01*
X161277814Y-95758689D01*
X161197621Y-95748131D01*
X161133725Y-95719864D01*
X161095254Y-95661540D01*
X161090869Y-95641383D01*
X161080059Y-95559272D01*
X161080059Y-95526903D01*
X161087551Y-95469999D01*
X161074287Y-95454875D01*
X161058755Y-95450315D01*
X161026401Y-95416386D01*
X161025065Y-95417412D01*
X161020117Y-95410964D01*
X161020117Y-95410963D01*
X160989057Y-95370484D01*
X160963864Y-95305318D01*
X160977902Y-95236873D01*
X160989053Y-95219519D01*
X161020117Y-95179037D01*
X161020117Y-95179035D01*
X161025065Y-95172588D01*
X161026844Y-95173953D01*
X161068980Y-95133781D01*
X161077215Y-95131783D01*
X161087549Y-95119999D01*
X161080059Y-95063096D01*
X161080059Y-95030727D01*
X161080311Y-95028813D01*
X161090936Y-94948108D01*
X161119203Y-94884212D01*
X161177527Y-94845741D01*
X161197691Y-94841355D01*
X161277815Y-94830807D01*
X161310183Y-94830807D01*
X161368999Y-94838549D01*
X161369000Y-94838549D01*
X161369000Y-94245000D01*
X160911747Y-94245000D01*
X160844708Y-94225315D01*
X160836261Y-94219376D01*
X160803036Y-94193882D01*
X160803037Y-94193882D01*
X160657406Y-94133561D01*
X160656292Y-94132663D01*
X160641745Y-94132231D01*
X160545050Y-94119501D01*
X160545045Y-94119500D01*
X160545040Y-94119500D01*
X160493000Y-94119500D01*
X160425961Y-94099815D01*
X160380206Y-94047011D01*
X160369000Y-93995500D01*
X160369000Y-93301450D01*
X160368998Y-93301449D01*
X160303140Y-93310118D01*
X160303128Y-93310122D01*
X160160219Y-93369316D01*
X160160213Y-93369319D01*
X160037490Y-93463489D01*
X160037489Y-93463490D01*
X159943319Y-93586213D01*
X159943317Y-93586217D01*
X159882970Y-93731909D01*
X159839129Y-93786312D01*
X159772835Y-93808377D01*
X159705135Y-93791098D01*
X159680728Y-93772137D01*
X159594803Y-93686212D01*
X159584980Y-93673950D01*
X159584759Y-93674134D01*
X159579786Y-93668123D01*
X159564052Y-93653348D01*
X159529364Y-93620773D01*
X159518919Y-93610328D01*
X159508475Y-93599883D01*
X159502986Y-93595625D01*
X159498561Y-93591847D01*
X159464582Y-93559938D01*
X159464580Y-93559936D01*
X159464577Y-93559935D01*
X159447029Y-93550288D01*
X159430763Y-93539604D01*
X159414933Y-93527325D01*
X159372168Y-93508818D01*
X159366922Y-93506248D01*
X159326093Y-93483803D01*
X159326092Y-93483802D01*
X159306693Y-93478822D01*
X159288281Y-93472518D01*
X159269898Y-93464562D01*
X159269894Y-93464561D01*
X159259508Y-93462916D01*
X159196374Y-93432985D01*
X159161204Y-93379449D01*
X159135357Y-93301448D01*
X160719000Y-93301448D01*
X160719000Y-93895000D01*
X160869000Y-93895000D01*
X160869000Y-93301450D01*
X160868998Y-93301449D01*
X160810181Y-93309192D01*
X160777812Y-93309192D01*
X160719000Y-93301448D01*
X161219000Y-93301448D01*
X161219000Y-93895000D01*
X161369000Y-93895000D01*
X161369000Y-93301450D01*
X161368998Y-93301449D01*
X161310181Y-93309192D01*
X161277812Y-93309192D01*
X161219000Y-93301448D01*
X161719000Y-93301448D01*
X161719000Y-93895000D01*
X161869000Y-93895000D01*
X161869000Y-93301450D01*
X161868998Y-93301449D01*
X161810181Y-93309192D01*
X161777812Y-93309192D01*
X161719000Y-93301448D01*
X162219000Y-93301448D01*
X162219000Y-93895000D01*
X162368998Y-93895000D01*
X162369000Y-93894998D01*
X162369000Y-93301450D01*
X162368998Y-93301449D01*
X162310181Y-93309192D01*
X162277812Y-93309192D01*
X162219000Y-93301448D01*
X161719000Y-93301448D01*
X161219000Y-93301448D01*
X160719000Y-93301448D01*
X159135357Y-93301448D01*
X159126814Y-93275666D01*
X159034712Y-93126344D01*
X158910656Y-93002288D01*
X158761334Y-92910186D01*
X158594797Y-92855001D01*
X158594795Y-92855000D01*
X158492010Y-92844500D01*
X157891998Y-92844500D01*
X157891980Y-92844501D01*
X157789203Y-92855000D01*
X157789200Y-92855001D01*
X157622668Y-92910185D01*
X157622663Y-92910187D01*
X157473342Y-93002289D01*
X157349288Y-93126343D01*
X157349283Y-93126349D01*
X157347241Y-93129661D01*
X157345247Y-93131453D01*
X157344807Y-93132011D01*
X157344711Y-93131935D01*
X157295291Y-93176383D01*
X157226328Y-93187602D01*
X157162247Y-93159755D01*
X157136168Y-93129656D01*
X157134319Y-93126659D01*
X157134316Y-93126655D01*
X157010345Y-93002684D01*
X156861124Y-92910643D01*
X156861119Y-92910641D01*
X156694697Y-92855494D01*
X156694690Y-92855493D01*
X156591986Y-92845000D01*
X156542000Y-92845000D01*
X156542000Y-95217638D01*
X156522315Y-95284677D01*
X156505681Y-95305319D01*
X156476000Y-95335000D01*
X156476000Y-99358999D01*
X156525972Y-99358999D01*
X156525986Y-99358998D01*
X156628697Y-99348505D01*
X156795119Y-99293358D01*
X156795124Y-99293356D01*
X156944345Y-99201315D01*
X157068318Y-99077342D01*
X157070165Y-99074348D01*
X157071969Y-99072724D01*
X157072798Y-99071677D01*
X157072976Y-99071818D01*
X157122110Y-99027621D01*
X157191073Y-99016396D01*
X157255156Y-99044236D01*
X157281243Y-99074341D01*
X157283288Y-99077656D01*
X157283289Y-99077657D01*
X157339181Y-99133549D01*
X157372666Y-99194872D01*
X157375500Y-99221230D01*
X157375500Y-100368000D01*
X157355815Y-100435039D01*
X157303011Y-100480794D01*
X157251500Y-100492000D01*
X137437641Y-100492000D01*
X137434040Y-100491895D01*
X137370065Y-100488169D01*
X137370062Y-100488169D01*
X137306943Y-100499298D01*
X137303375Y-100499821D01*
X137239750Y-100507258D01*
X137239743Y-100507259D01*
X137229201Y-100511096D01*
X137208335Y-100516686D01*
X137197297Y-100518632D01*
X137197285Y-100518636D01*
X137138450Y-100544014D01*
X137135100Y-100545345D01*
X137074885Y-100567261D01*
X137074881Y-100567263D01*
X137065502Y-100573431D01*
X137046498Y-100583677D01*
X137036204Y-100588118D01*
X137036189Y-100588126D01*
X136984794Y-100626389D01*
X136981841Y-100628457D01*
X136928306Y-100663668D01*
X136920606Y-100671829D01*
X136904469Y-100686189D01*
X136895470Y-100692888D01*
X136854274Y-100741983D01*
X136851878Y-100744676D01*
X136807905Y-100791284D01*
X136802300Y-100800993D01*
X136789909Y-100818691D01*
X136782699Y-100827283D01*
X136753940Y-100884547D01*
X136752229Y-100887720D01*
X136720188Y-100943217D01*
X136720187Y-100943219D01*
X136716968Y-100953970D01*
X136708996Y-100974037D01*
X136703960Y-100984065D01*
X136703959Y-100984069D01*
X136689182Y-101046412D01*
X136688249Y-101049893D01*
X136669869Y-101111292D01*
X136669217Y-101122490D01*
X136666087Y-101143861D01*
X136663500Y-101154779D01*
X136663500Y-101218858D01*
X136663395Y-101222463D01*
X136659669Y-101286434D01*
X136659669Y-101286435D01*
X136661616Y-101297477D01*
X136663500Y-101319009D01*
X136663500Y-105746298D01*
X136643815Y-105813337D01*
X136610625Y-105847872D01*
X136542595Y-105895507D01*
X136375505Y-106062597D01*
X136245575Y-106248158D01*
X136190998Y-106291783D01*
X136121500Y-106298977D01*
X136059145Y-106267454D01*
X136042425Y-106248158D01*
X135912494Y-106062597D01*
X135745402Y-105895506D01*
X135745395Y-105895501D01*
X135551834Y-105759967D01*
X135551830Y-105759965D01*
X135522521Y-105746298D01*
X135337663Y-105660097D01*
X135337659Y-105660096D01*
X135337655Y-105660094D01*
X135109413Y-105598938D01*
X135109403Y-105598936D01*
X134874001Y-105578341D01*
X134873999Y-105578341D01*
X134638596Y-105598936D01*
X134638586Y-105598938D01*
X134410344Y-105660094D01*
X134410335Y-105660098D01*
X134196171Y-105759964D01*
X134196169Y-105759965D01*
X134002597Y-105895505D01*
X133835505Y-106062597D01*
X133699965Y-106256169D01*
X133699964Y-106256171D01*
X133600098Y-106470335D01*
X133600094Y-106470344D01*
X133538938Y-106698586D01*
X133538936Y-106698596D01*
X133518341Y-106933999D01*
X133518341Y-106934000D01*
X133538936Y-107169403D01*
X133538938Y-107169413D01*
X133600094Y-107397655D01*
X133600096Y-107397659D01*
X133600097Y-107397663D01*
X133656955Y-107519595D01*
X133667447Y-107588673D01*
X133638927Y-107652457D01*
X133580451Y-107690696D01*
X133544573Y-107696000D01*
X121790000Y-107696000D01*
X121722961Y-107676315D01*
X121677206Y-107623511D01*
X121666000Y-107572000D01*
X121666000Y-98384000D01*
X155226001Y-98384000D01*
X155226001Y-98658986D01*
X155236494Y-98761697D01*
X155291641Y-98928119D01*
X155291643Y-98928124D01*
X155383684Y-99077345D01*
X155507654Y-99201315D01*
X155656875Y-99293356D01*
X155656880Y-99293358D01*
X155823302Y-99348505D01*
X155823309Y-99348506D01*
X155926019Y-99358999D01*
X155975999Y-99358998D01*
X155976000Y-99358998D01*
X155976000Y-98384000D01*
X155226001Y-98384000D01*
X121666000Y-98384000D01*
X121666000Y-97884000D01*
X155226000Y-97884000D01*
X155976000Y-97884000D01*
X155976000Y-96352000D01*
X155226001Y-96352000D01*
X155226001Y-96626986D01*
X155236494Y-96729697D01*
X155291641Y-96896119D01*
X155291643Y-96896124D01*
X155387475Y-97051491D01*
X155385108Y-97052950D01*
X155406461Y-97105912D01*
X155393406Y-97174551D01*
X155387139Y-97184301D01*
X155387475Y-97184509D01*
X155291643Y-97339875D01*
X155291641Y-97339880D01*
X155236494Y-97506302D01*
X155236493Y-97506309D01*
X155226000Y-97609013D01*
X155226000Y-97884000D01*
X121666000Y-97884000D01*
X121666000Y-95852000D01*
X155226000Y-95852000D01*
X155976000Y-95852000D01*
X155976000Y-94954361D01*
X155995685Y-94887322D01*
X156012319Y-94866679D01*
X156042000Y-94836998D01*
X156042000Y-94320000D01*
X155292001Y-94320000D01*
X155292001Y-94594986D01*
X155302494Y-94697697D01*
X155357641Y-94864119D01*
X155357643Y-94864124D01*
X155428468Y-94978949D01*
X155446908Y-95046342D01*
X155425985Y-95113005D01*
X155410612Y-95131726D01*
X155383684Y-95158654D01*
X155291643Y-95307875D01*
X155291641Y-95307880D01*
X155236494Y-95474302D01*
X155236493Y-95474309D01*
X155226000Y-95577013D01*
X155226000Y-95852000D01*
X121666000Y-95852000D01*
X121666000Y-93820000D01*
X155292000Y-93820000D01*
X156042000Y-93820000D01*
X156042000Y-92845000D01*
X156041999Y-92844999D01*
X155992029Y-92845000D01*
X155992011Y-92845001D01*
X155889302Y-92855494D01*
X155722880Y-92910641D01*
X155722875Y-92910643D01*
X155573654Y-93002684D01*
X155449684Y-93126654D01*
X155357643Y-93275875D01*
X155357641Y-93275880D01*
X155302494Y-93442302D01*
X155302493Y-93442309D01*
X155292000Y-93545013D01*
X155292000Y-93820000D01*
X121666000Y-93820000D01*
X121666000Y-85976000D01*
X121685685Y-85908961D01*
X121738489Y-85863206D01*
X121790000Y-85852000D01*
X143704573Y-85852000D01*
X143771612Y-85871685D01*
G37*
%TD.AperFunction*%
%TA.AperFunction,Conductor*%
G36*
X180029039Y-85871685D02*
G01*
X180074794Y-85924489D01*
X180086000Y-85976000D01*
X180086000Y-107572000D01*
X180066315Y-107639039D01*
X180013511Y-107684794D01*
X179962000Y-107696000D01*
X174448500Y-107696000D01*
X174381461Y-107676315D01*
X174335706Y-107623511D01*
X174324500Y-107572000D01*
X174324499Y-106036129D01*
X174324498Y-106036123D01*
X174318091Y-105976516D01*
X174267797Y-105841671D01*
X174267793Y-105841664D01*
X174181547Y-105726455D01*
X174181544Y-105726452D01*
X174066335Y-105640206D01*
X174066328Y-105640202D01*
X173931482Y-105589908D01*
X173931483Y-105589908D01*
X173871883Y-105583501D01*
X173871881Y-105583500D01*
X173871873Y-105583500D01*
X173871864Y-105583500D01*
X172076129Y-105583500D01*
X172076123Y-105583501D01*
X172016516Y-105589908D01*
X171881671Y-105640202D01*
X171881664Y-105640206D01*
X171766455Y-105726452D01*
X171766452Y-105726455D01*
X171680206Y-105841664D01*
X171680203Y-105841669D01*
X171631189Y-105973083D01*
X171589317Y-106029016D01*
X171523853Y-106053433D01*
X171455580Y-106038581D01*
X171427326Y-106017430D01*
X171305402Y-105895506D01*
X171305395Y-105895501D01*
X171111834Y-105759967D01*
X171111830Y-105759965D01*
X171082521Y-105746298D01*
X170897663Y-105660097D01*
X170897659Y-105660096D01*
X170897655Y-105660094D01*
X170669413Y-105598938D01*
X170669403Y-105598936D01*
X170434001Y-105578341D01*
X170433999Y-105578341D01*
X170198596Y-105598936D01*
X170198586Y-105598938D01*
X169970344Y-105660094D01*
X169970335Y-105660098D01*
X169756171Y-105759964D01*
X169756169Y-105759965D01*
X169562597Y-105895505D01*
X169395505Y-106062597D01*
X169265575Y-106248158D01*
X169210998Y-106291783D01*
X169141500Y-106298977D01*
X169079145Y-106267454D01*
X169062425Y-106248158D01*
X168932494Y-106062597D01*
X168765402Y-105895506D01*
X168765395Y-105895501D01*
X168571834Y-105759967D01*
X168571830Y-105759965D01*
X168542521Y-105746298D01*
X168357663Y-105660097D01*
X168357659Y-105660096D01*
X168357655Y-105660094D01*
X168129413Y-105598938D01*
X168129403Y-105598936D01*
X167894001Y-105578341D01*
X167893999Y-105578341D01*
X167658596Y-105598936D01*
X167658586Y-105598938D01*
X167430344Y-105660094D01*
X167430335Y-105660098D01*
X167216171Y-105759964D01*
X167216169Y-105759965D01*
X167022597Y-105895505D01*
X166855508Y-106062594D01*
X166725574Y-106248159D01*
X166670997Y-106291784D01*
X166601498Y-106298976D01*
X166539144Y-106267454D01*
X166522424Y-106248158D01*
X166392494Y-106062597D01*
X166225402Y-105895506D01*
X166225395Y-105895501D01*
X166031834Y-105759967D01*
X166031830Y-105759965D01*
X166002521Y-105746298D01*
X165817663Y-105660097D01*
X165817659Y-105660096D01*
X165817655Y-105660094D01*
X165589413Y-105598938D01*
X165589403Y-105598936D01*
X165354001Y-105578341D01*
X165353999Y-105578341D01*
X165118596Y-105598936D01*
X165118586Y-105598938D01*
X164890344Y-105660094D01*
X164890335Y-105660098D01*
X164676171Y-105759964D01*
X164676169Y-105759965D01*
X164482597Y-105895505D01*
X164315505Y-106062597D01*
X164185575Y-106248158D01*
X164130998Y-106291783D01*
X164061500Y-106298977D01*
X163999145Y-106267454D01*
X163982425Y-106248158D01*
X163852494Y-106062597D01*
X163685402Y-105895506D01*
X163685395Y-105895501D01*
X163491834Y-105759967D01*
X163491830Y-105759965D01*
X163462521Y-105746298D01*
X163277663Y-105660097D01*
X163277659Y-105660096D01*
X163277655Y-105660094D01*
X163049413Y-105598938D01*
X163049403Y-105598936D01*
X162814001Y-105578341D01*
X162813999Y-105578341D01*
X162578596Y-105598936D01*
X162578586Y-105598938D01*
X162350344Y-105660094D01*
X162350335Y-105660098D01*
X162136171Y-105759964D01*
X162136169Y-105759965D01*
X161942597Y-105895505D01*
X161775505Y-106062597D01*
X161645575Y-106248158D01*
X161590998Y-106291783D01*
X161521500Y-106298977D01*
X161459145Y-106267454D01*
X161442425Y-106248158D01*
X161312494Y-106062597D01*
X161145402Y-105895506D01*
X161145395Y-105895501D01*
X160951834Y-105759967D01*
X160951830Y-105759965D01*
X160922521Y-105746298D01*
X160737663Y-105660097D01*
X160737659Y-105660096D01*
X160737655Y-105660094D01*
X160509413Y-105598938D01*
X160509403Y-105598936D01*
X160274001Y-105578341D01*
X160273999Y-105578341D01*
X160038596Y-105598936D01*
X160038586Y-105598938D01*
X159810344Y-105660094D01*
X159810335Y-105660098D01*
X159596171Y-105759964D01*
X159596169Y-105759965D01*
X159402597Y-105895505D01*
X159235505Y-106062597D01*
X159105575Y-106248158D01*
X159050998Y-106291783D01*
X158981500Y-106298977D01*
X158919145Y-106267454D01*
X158902425Y-106248158D01*
X158772494Y-106062597D01*
X158605402Y-105895506D01*
X158605395Y-105895501D01*
X158411834Y-105759967D01*
X158411830Y-105759965D01*
X158382521Y-105746298D01*
X158197663Y-105660097D01*
X158197659Y-105660096D01*
X158197655Y-105660094D01*
X157969413Y-105598938D01*
X157969403Y-105598936D01*
X157734001Y-105578341D01*
X157733999Y-105578341D01*
X157498596Y-105598936D01*
X157498586Y-105598938D01*
X157270344Y-105660094D01*
X157270335Y-105660098D01*
X157056171Y-105759964D01*
X157056169Y-105759965D01*
X156862597Y-105895505D01*
X156695505Y-106062597D01*
X156565575Y-106248158D01*
X156510998Y-106291783D01*
X156441500Y-106298977D01*
X156379145Y-106267454D01*
X156362425Y-106248158D01*
X156232494Y-106062597D01*
X156065402Y-105895506D01*
X156065395Y-105895501D01*
X155871834Y-105759967D01*
X155871830Y-105759965D01*
X155842521Y-105746298D01*
X155657663Y-105660097D01*
X155657659Y-105660096D01*
X155657655Y-105660094D01*
X155429413Y-105598938D01*
X155429403Y-105598936D01*
X155194001Y-105578341D01*
X155193999Y-105578341D01*
X154958596Y-105598936D01*
X154958586Y-105598938D01*
X154730344Y-105660094D01*
X154730335Y-105660098D01*
X154516171Y-105759964D01*
X154516169Y-105759965D01*
X154322597Y-105895505D01*
X154155505Y-106062597D01*
X154025575Y-106248158D01*
X153970998Y-106291783D01*
X153901500Y-106298977D01*
X153839145Y-106267454D01*
X153822425Y-106248158D01*
X153692494Y-106062597D01*
X153525402Y-105895506D01*
X153525395Y-105895501D01*
X153331834Y-105759967D01*
X153331830Y-105759965D01*
X153302521Y-105746298D01*
X153117663Y-105660097D01*
X153117659Y-105660096D01*
X153117655Y-105660094D01*
X152889413Y-105598938D01*
X152889403Y-105598936D01*
X152654001Y-105578341D01*
X152653999Y-105578341D01*
X152418596Y-105598936D01*
X152418586Y-105598938D01*
X152190344Y-105660094D01*
X152190335Y-105660098D01*
X151976171Y-105759964D01*
X151976169Y-105759965D01*
X151782597Y-105895505D01*
X151615505Y-106062597D01*
X151485575Y-106248158D01*
X151430998Y-106291783D01*
X151361500Y-106298977D01*
X151299145Y-106267454D01*
X151282425Y-106248158D01*
X151152494Y-106062597D01*
X150985402Y-105895506D01*
X150985395Y-105895501D01*
X150791834Y-105759967D01*
X150791830Y-105759965D01*
X150762521Y-105746298D01*
X150577663Y-105660097D01*
X150577659Y-105660096D01*
X150577655Y-105660094D01*
X150349413Y-105598938D01*
X150349403Y-105598936D01*
X150114001Y-105578341D01*
X150113999Y-105578341D01*
X149878596Y-105598936D01*
X149878586Y-105598938D01*
X149650344Y-105660094D01*
X149650335Y-105660098D01*
X149436171Y-105759964D01*
X149436169Y-105759965D01*
X149242597Y-105895505D01*
X149075505Y-106062597D01*
X148945575Y-106248158D01*
X148890998Y-106291783D01*
X148821500Y-106298977D01*
X148759145Y-106267454D01*
X148742425Y-106248158D01*
X148612494Y-106062597D01*
X148445402Y-105895506D01*
X148445395Y-105895501D01*
X148251834Y-105759967D01*
X148251830Y-105759965D01*
X148222521Y-105746298D01*
X148037663Y-105660097D01*
X148037659Y-105660096D01*
X148037655Y-105660094D01*
X147809413Y-105598938D01*
X147809403Y-105598936D01*
X147574001Y-105578341D01*
X147573999Y-105578341D01*
X147338596Y-105598936D01*
X147338586Y-105598938D01*
X147110344Y-105660094D01*
X147110335Y-105660098D01*
X146896171Y-105759964D01*
X146896169Y-105759965D01*
X146702597Y-105895505D01*
X146535505Y-106062597D01*
X146405575Y-106248158D01*
X146350998Y-106291783D01*
X146281500Y-106298977D01*
X146219145Y-106267454D01*
X146202425Y-106248158D01*
X146072494Y-106062597D01*
X145905402Y-105895506D01*
X145905395Y-105895501D01*
X145711834Y-105759967D01*
X145711830Y-105759965D01*
X145682521Y-105746298D01*
X145497663Y-105660097D01*
X145497659Y-105660096D01*
X145497655Y-105660094D01*
X145269413Y-105598938D01*
X145269403Y-105598936D01*
X145034001Y-105578341D01*
X145033999Y-105578341D01*
X144798596Y-105598936D01*
X144798586Y-105598938D01*
X144570344Y-105660094D01*
X144570335Y-105660098D01*
X144356171Y-105759964D01*
X144356169Y-105759965D01*
X144162597Y-105895505D01*
X143995508Y-106062594D01*
X143865269Y-106248595D01*
X143810692Y-106292219D01*
X143741193Y-106299412D01*
X143678839Y-106267890D01*
X143662119Y-106248594D01*
X143532113Y-106062926D01*
X143532108Y-106062920D01*
X143365082Y-105895894D01*
X143171578Y-105760399D01*
X142957492Y-105660570D01*
X142957486Y-105660567D01*
X142744000Y-105603364D01*
X142744000Y-106498498D01*
X142636315Y-106449320D01*
X142529763Y-106434000D01*
X142458237Y-106434000D01*
X142351685Y-106449320D01*
X142244000Y-106498498D01*
X142244000Y-105603364D01*
X142243999Y-105603364D01*
X142030513Y-105660567D01*
X142030507Y-105660570D01*
X141816422Y-105760399D01*
X141816420Y-105760400D01*
X141622926Y-105895886D01*
X141622920Y-105895891D01*
X141455891Y-106062920D01*
X141455890Y-106062922D01*
X141325880Y-106248595D01*
X141271303Y-106292219D01*
X141201804Y-106299412D01*
X141139450Y-106267890D01*
X141122730Y-106248594D01*
X140992494Y-106062597D01*
X140825402Y-105895506D01*
X140825395Y-105895501D01*
X140631834Y-105759967D01*
X140631830Y-105759965D01*
X140602521Y-105746298D01*
X140417663Y-105660097D01*
X140417659Y-105660096D01*
X140417655Y-105660094D01*
X140189413Y-105598938D01*
X140189403Y-105598936D01*
X139954001Y-105578341D01*
X139953999Y-105578341D01*
X139718596Y-105598936D01*
X139718586Y-105598938D01*
X139490344Y-105660094D01*
X139490335Y-105660098D01*
X139276171Y-105759964D01*
X139276169Y-105759965D01*
X139082597Y-105895505D01*
X138915505Y-106062597D01*
X138785575Y-106248158D01*
X138730998Y-106291783D01*
X138661500Y-106298977D01*
X138599145Y-106267454D01*
X138582425Y-106248158D01*
X138452494Y-106062597D01*
X138285404Y-105895507D01*
X138217375Y-105847872D01*
X138173751Y-105793294D01*
X138164500Y-105746298D01*
X138164500Y-102117000D01*
X138184185Y-102049961D01*
X138236989Y-102004206D01*
X138288500Y-101993000D01*
X158038279Y-101993000D01*
X158102359Y-101993000D01*
X158105959Y-101993104D01*
X158169935Y-101996831D01*
X158180976Y-101994884D01*
X158202509Y-101993000D01*
X158408279Y-101993000D01*
X159199270Y-101993000D01*
X159266309Y-102012685D01*
X159286951Y-102029319D01*
X159355344Y-102097712D01*
X159504666Y-102189814D01*
X159671203Y-102244999D01*
X159773991Y-102255500D01*
X160774008Y-102255499D01*
X160774016Y-102255498D01*
X160774019Y-102255498D01*
X160830302Y-102249748D01*
X160876797Y-102244999D01*
X161043334Y-102189814D01*
X161192656Y-102097712D01*
X161261048Y-102029319D01*
X161322372Y-101995834D01*
X161348730Y-101993000D01*
X161485270Y-101993000D01*
X161552309Y-102012685D01*
X161572951Y-102029319D01*
X161641344Y-102097712D01*
X161790666Y-102189814D01*
X161957203Y-102244999D01*
X162059991Y-102255500D01*
X163060008Y-102255499D01*
X163060016Y-102255498D01*
X163060019Y-102255498D01*
X163116302Y-102249748D01*
X163162797Y-102244999D01*
X163329334Y-102189814D01*
X163478656Y-102097712D01*
X163547048Y-102029319D01*
X163608372Y-101995834D01*
X163634730Y-101993000D01*
X164568359Y-101993000D01*
X164571959Y-101993104D01*
X164635935Y-101996831D01*
X164699064Y-101985698D01*
X164702606Y-101985179D01*
X164766255Y-101977741D01*
X164776782Y-101973908D01*
X164797672Y-101968311D01*
X164808711Y-101966365D01*
X164867555Y-101940982D01*
X164870876Y-101939661D01*
X164931117Y-101917737D01*
X164940488Y-101911572D01*
X164959506Y-101901318D01*
X164969804Y-101896877D01*
X165021233Y-101858587D01*
X165024128Y-101856560D01*
X165077696Y-101821330D01*
X165085391Y-101813172D01*
X165101534Y-101798806D01*
X165110530Y-101792110D01*
X165151751Y-101742982D01*
X165154090Y-101740355D01*
X165198092Y-101693718D01*
X165203700Y-101684002D01*
X165216093Y-101666303D01*
X165223302Y-101657714D01*
X165252080Y-101600409D01*
X165253741Y-101597326D01*
X165285812Y-101541781D01*
X165289029Y-101531033D01*
X165297006Y-101510955D01*
X165302040Y-101500933D01*
X165316822Y-101438559D01*
X165317744Y-101435117D01*
X165336130Y-101373710D01*
X165336781Y-101362518D01*
X165339917Y-101341117D01*
X165342499Y-101330225D01*
X165342500Y-101330221D01*
X165342500Y-101266140D01*
X165342605Y-101262534D01*
X165346331Y-101198565D01*
X165344384Y-101187521D01*
X165342500Y-101165990D01*
X165342500Y-96543640D01*
X165342605Y-96540034D01*
X165346331Y-96476065D01*
X165335202Y-96412954D01*
X165334679Y-96409384D01*
X165332225Y-96388395D01*
X165327241Y-96345745D01*
X165323408Y-96335215D01*
X165317811Y-96314330D01*
X165315865Y-96303289D01*
X165290484Y-96244448D01*
X165289152Y-96241095D01*
X165287160Y-96235624D01*
X165267237Y-96180883D01*
X165261072Y-96171510D01*
X165250818Y-96152491D01*
X165246379Y-96142200D01*
X165246378Y-96142198D01*
X165246377Y-96142196D01*
X165246370Y-96142186D01*
X165244653Y-96139879D01*
X165243964Y-96138018D01*
X165242763Y-96135937D01*
X165243118Y-96135731D01*
X165220410Y-96074350D01*
X165235443Y-96006117D01*
X165256432Y-95978156D01*
X168277788Y-92956801D01*
X168290042Y-92946986D01*
X168289859Y-92946764D01*
X168295866Y-92941792D01*
X168295877Y-92941786D01*
X168328030Y-92907546D01*
X168343227Y-92891364D01*
X168353671Y-92880918D01*
X168364120Y-92870471D01*
X168368379Y-92864978D01*
X168372152Y-92860561D01*
X168404062Y-92826582D01*
X168413713Y-92809024D01*
X168424396Y-92792761D01*
X168436673Y-92776936D01*
X168455185Y-92734153D01*
X168457738Y-92728941D01*
X168480197Y-92688092D01*
X168485180Y-92668680D01*
X168491481Y-92650280D01*
X168499437Y-92631896D01*
X168506729Y-92585852D01*
X168507906Y-92580171D01*
X168519500Y-92535019D01*
X168519500Y-92514982D01*
X168521027Y-92495582D01*
X168524160Y-92475804D01*
X168519775Y-92429415D01*
X168519500Y-92423577D01*
X168519500Y-87889226D01*
X168539185Y-87822187D01*
X168572374Y-87787654D01*
X168765401Y-87652495D01*
X168932495Y-87485401D01*
X169062424Y-87299842D01*
X169117002Y-87256217D01*
X169186500Y-87249023D01*
X169248855Y-87280546D01*
X169265575Y-87299842D01*
X169395500Y-87485395D01*
X169395505Y-87485401D01*
X169562599Y-87652495D01*
X169659384Y-87720264D01*
X169756165Y-87788032D01*
X169756167Y-87788033D01*
X169756170Y-87788035D01*
X169970337Y-87887903D01*
X169970343Y-87887904D01*
X169970344Y-87887905D01*
X170025285Y-87902626D01*
X170198592Y-87949063D01*
X170375034Y-87964500D01*
X170433999Y-87969659D01*
X170434000Y-87969659D01*
X170434001Y-87969659D01*
X170492966Y-87964500D01*
X170669408Y-87949063D01*
X170897663Y-87887903D01*
X171111830Y-87788035D01*
X171305401Y-87652495D01*
X171427329Y-87530566D01*
X171488648Y-87497084D01*
X171558340Y-87502068D01*
X171614274Y-87543939D01*
X171631189Y-87574917D01*
X171680202Y-87706328D01*
X171680206Y-87706335D01*
X171766452Y-87821544D01*
X171766455Y-87821547D01*
X171881664Y-87907793D01*
X171881671Y-87907797D01*
X172016517Y-87958091D01*
X172016516Y-87958091D01*
X172023444Y-87958835D01*
X172076127Y-87964500D01*
X173871872Y-87964499D01*
X173931483Y-87958091D01*
X174066331Y-87907796D01*
X174181546Y-87821546D01*
X174267796Y-87706331D01*
X174318091Y-87571483D01*
X174324500Y-87511873D01*
X174324499Y-85975999D01*
X174344184Y-85908961D01*
X174396987Y-85863206D01*
X174448499Y-85852000D01*
X179962000Y-85852000D01*
X180029039Y-85871685D01*
G37*
%TD.AperFunction*%
%TD*%
M02*
