%TF.GenerationSoftware,KiCad,Pcbnew,7.0.6-0*%
%TF.CreationDate,2023-10-22T23:09:20-07:00*%
%TF.ProjectId,esp32_daughtercard,65737033-325f-4646-9175-676874657263,1.0*%
%TF.SameCoordinates,Original*%
%TF.FileFunction,Soldermask,Top*%
%TF.FilePolarity,Negative*%
%FSLAX46Y46*%
G04 Gerber Fmt 4.6, Leading zero omitted, Abs format (unit mm)*
G04 Created by KiCad (PCBNEW 7.0.6-0) date 2023-10-22 23:09:20*
%MOMM*%
%LPD*%
G01*
G04 APERTURE LIST*
G04 Aperture macros list*
%AMRoundRect*
0 Rectangle with rounded corners*
0 $1 Rounding radius*
0 $2 $3 $4 $5 $6 $7 $8 $9 X,Y pos of 4 corners*
0 Add a 4 corners polygon primitive as box body*
4,1,4,$2,$3,$4,$5,$6,$7,$8,$9,$2,$3,0*
0 Add four circle primitives for the rounded corners*
1,1,$1+$1,$2,$3*
1,1,$1+$1,$4,$5*
1,1,$1+$1,$6,$7*
1,1,$1+$1,$8,$9*
0 Add four rect primitives between the rounded corners*
20,1,$1+$1,$2,$3,$4,$5,0*
20,1,$1+$1,$4,$5,$6,$7,0*
20,1,$1+$1,$6,$7,$8,$9,0*
20,1,$1+$1,$8,$9,$2,$3,0*%
G04 Aperture macros list end*
%ADD10RoundRect,0.087500X0.087500X-0.187500X0.087500X0.187500X-0.087500X0.187500X-0.087500X-0.187500X0*%
%ADD11RoundRect,0.087500X0.187500X-0.087500X0.187500X0.087500X-0.187500X0.087500X-0.187500X-0.087500X0*%
%ADD12RoundRect,0.250000X0.450000X-0.262500X0.450000X0.262500X-0.450000X0.262500X-0.450000X-0.262500X0*%
%ADD13R,1.700000X1.700000*%
%ADD14O,1.700000X1.700000*%
%ADD15RoundRect,0.250000X0.250000X0.475000X-0.250000X0.475000X-0.250000X-0.475000X0.250000X-0.475000X0*%
G04 APERTURE END LIST*
D10*
%TO.C,U2*%
X160544000Y-96520000D03*
X161044000Y-96520000D03*
X161544000Y-96520000D03*
X162044000Y-96520000D03*
X162544000Y-96520000D03*
D11*
X162769000Y-95795000D03*
X162769000Y-95295000D03*
X162769000Y-94795000D03*
D10*
X162544000Y-94070000D03*
X162044000Y-94070000D03*
X161544000Y-94070000D03*
X161044000Y-94070000D03*
X160544000Y-94070000D03*
D11*
X160319000Y-94795000D03*
X160319000Y-95295000D03*
X160319000Y-95795000D03*
%TD*%
D12*
%TO.C,R1*%
X160274000Y-101242500D03*
X160274000Y-99417500D03*
%TD*%
D13*
%TO.C,J1*%
X172974000Y-86614000D03*
D14*
X170434000Y-86614000D03*
X167894000Y-86614000D03*
X165354000Y-86614000D03*
X162814000Y-86614000D03*
X160274000Y-86614000D03*
X157734000Y-86614000D03*
X155194000Y-86614000D03*
X152654000Y-86614000D03*
X150114000Y-86614000D03*
X147574000Y-86614000D03*
X145034000Y-86614000D03*
%TD*%
D13*
%TO.C,J2*%
X172974000Y-106934000D03*
D14*
X170434000Y-106934000D03*
X167894000Y-106934000D03*
X165354000Y-106934000D03*
X162814000Y-106934000D03*
X160274000Y-106934000D03*
X157734000Y-106934000D03*
X155194000Y-106934000D03*
X152654000Y-106934000D03*
X150114000Y-106934000D03*
X147574000Y-106934000D03*
X145034000Y-106934000D03*
X142494000Y-106934000D03*
X139954000Y-106934000D03*
X137414000Y-106934000D03*
X134874000Y-106934000D03*
%TD*%
D12*
%TO.C,R2*%
X162560000Y-101242500D03*
X162560000Y-99417500D03*
%TD*%
D15*
%TO.C,C2*%
X158126000Y-96102000D03*
X156226000Y-96102000D03*
%TD*%
%TO.C,C3*%
X158192000Y-94070000D03*
X156292000Y-94070000D03*
%TD*%
%TO.C,C1*%
X158126000Y-98134000D03*
X156226000Y-98134000D03*
%TD*%
M02*
