M48
; DRILL file {KiCad 7.0.6-0} date 2023 October 22, Sunday 23:09:39
; FORMAT={-:-/ absolute / inch / decimal}
; #@! TF.CreationDate,2023-10-22T23:09:39-07:00
; #@! TF.GenerationSoftware,Kicad,Pcbnew,7.0.6-0
; #@! TF.FileFunction,Plated,1,2,PTH
FMAT,2
INCH
; #@! TA.AperFunction,Plated,PTH,ViaDrill
T1C0.0157
; #@! TA.AperFunction,Plated,PTH,ComponentDrill
T2C0.0394
%
G90
G05
T1
X6.15Y-3.63
X6.15Y-3.93
X6.31Y-3.87
X6.4Y-3.87
X6.42Y-3.63
T2
X5.31Y-4.21
X5.41Y-4.21
X5.51Y-4.21
X5.61Y-4.21
X5.71Y-3.41
X5.71Y-4.21
X5.81Y-3.41
X5.81Y-4.21
X5.91Y-3.41
X5.91Y-4.21
X6.01Y-3.41
X6.01Y-4.21
X6.11Y-3.41
X6.11Y-4.21
X6.21Y-3.41
X6.21Y-4.21
X6.31Y-3.41
X6.31Y-4.21
X6.41Y-3.41
X6.41Y-4.21
X6.51Y-3.41
X6.51Y-4.21
X6.61Y-3.41
X6.61Y-4.21
X6.71Y-3.41
X6.71Y-4.21
X6.81Y-3.41
X6.81Y-4.21
T0
M30
